<svg fill="#000000" height="800px" width="800px" version="1.1" id="Layer_1" xmlns="http://www.w3.org/2000/svg" xmlns:xlink="http://www.w3.org/1999/xlink" 
	 viewBox="0 0 512 512" xml:space="preserve">
<g transform="translate(1 1)">
	<g>
		<g>
			<path d="M371.226,357.426l-65.922-93.538l88.79-100.194c19.627-22.187,29.867-52.907,27.307-82.773
				c-4.267-56.32-16.213-75.947-17.067-77.653C402.627,0.707,400.067-1,397.507-1c-3.413,0-5.973,0.853-7.68,3.413L254.986,192.49
				L121.027,2.413C120.173,0.707,116.76-1,114.2-1c-3.413,0-5.973,1.707-6.827,4.267c-1.707,1.707-12.8,21.333-17.067,77.653
				c-2.56,29.867,7.68,59.733,27.307,82.773l86.79,99.082l-66.505,94.672C96.126,358.448,63,392.172,63,434.2
				c0,42.667,34.133,76.8,76.8,76.8s76.8-34.133,76.8-76.8c0-19.328-7.021-36.891-18.651-50.337l56.362-64.112l56.954,65.02
				C300.102,398.096,293.4,415.307,293.4,434.2c0,42.667,34.133,76.8,76.8,76.8s76.8-34.133,76.8-76.8
				C447,391.878,413.41,357.97,371.226,357.426z M139.8,493.933c-33.28,0-59.733-26.453-59.733-59.733s26.453-59.733,59.733-59.733
				c14.397,0,27.511,4.958,37.764,13.27c1.095,0.941,2.167,1.914,3.196,2.943c0.463,0.463,0.927,0.857,1.407,1.194
				c10.761,10.772,17.367,25.696,17.367,42.326C199.533,467.48,173.08,493.933,139.8,493.933z M186.911,373.409
				c-8.21-6.352-17.751-11.077-28.173-13.684l57.862-82.538l27.307,30.72L186.911,373.409z M266.093,208.067l128.853-181.76
				c3.413,10.24,7.68,28.16,9.387,56.32c1.707,25.6-6.827,51.2-23.04,69.973l-86.006,97.076l-20.906-29.663L266.093,208.067z
				 M107.373,81.773c1.707-27.307,5.973-45.227,9.387-56.32l130.539,184.931c0.211,0.713,0.493,1.378,0.874,1.949l39.253,56.32
				c0.793,0.793,1.593,1.579,2.557,2.2l62.296,88.253c-4.341,1.085-8.526,2.634-12.56,4.509c-5.609,2.403-10.869,5.445-15.682,9.049
				L130.413,151.747C114.2,132.973,105.667,107.373,107.373,81.773z M370.2,493.933c-33.28,0-59.733-26.453-59.733-59.733
				c0-16.787,6.736-31.831,17.679-42.625c0.387-0.269,0.76-0.561,1.095-0.895c9.509-8.716,21.962-14.482,35.308-15.946
				c1.86-0.17,3.743-0.268,5.652-0.268c33.28,0,59.733,26.453,59.733,59.733S403.48,493.933,370.2,493.933z"/>
			<path d="M370.2,391.533c-23.893,0-42.667,18.773-42.667,42.667s18.773,42.667,42.667,42.667s42.667-18.773,42.667-42.667
				S394.093,391.533,370.2,391.533z M370.2,459.8c-14.507,0-25.6-11.093-25.6-25.6c0-14.507,11.093-25.6,25.6-25.6
				c14.507,0,25.6,11.093,25.6,25.6C395.8,448.707,384.707,459.8,370.2,459.8z"/>
			<path d="M139.8,391.533c-23.893,0-42.667,18.773-42.667,42.667s18.773,42.667,42.667,42.667s42.667-18.773,42.667-42.667
				S163.693,391.533,139.8,391.533z M139.8,459.8c-14.507,0-25.6-11.093-25.6-25.6c0-14.507,11.093-25.6,25.6-25.6
				s25.6,11.093,25.6,25.6C165.4,448.707,154.307,459.8,139.8,459.8z"/>
		</g>
	</g>
</g>
</svg>