<?xml version="1.0" encoding="iso-8859-1"?>
<!-- Uploaded to: SVG Repo, www.svgrepo.com, Generator: SVG Repo Mixer Tools -->
<svg height="800px" width="800px" version="1.1" id="Capa_1" xmlns="http://www.w3.org/2000/svg" xmlns:xlink="http://www.w3.org/1999/xlink" 
	 viewBox="0 0 218.351 218.351" xml:space="preserve">
<g>
	<g>
		<path style="fill:#010002;" d="M204.707,0H13.649C10.935,0,8.33,1.077,6.41,3.002c-1.92,1.92-2.997,4.531-2.997,7.234v191.053
			c0,2.828,1.142,5.385,2.997,7.239c1.855,1.855,4.411,2.997,7.239,2.997h8.697v6.826H35.83h0.163h13.483v-6.826h116.837v6.826
			h13.483h0.163h13.483v-6.826h11.264c2.714,0,5.319-1.077,7.239-2.997c1.915-1.925,2.992-4.52,2.992-7.239V10.236
			C214.938,4.585,210.364,0,204.707,0z M194.471,191.053H23.886V20.473h170.585V191.053z"/>
		<path style="fill:#010002;" d="M35.993,135.362h-6.826v13.652h6.826v21.87c0,3.769,3.057,6.826,6.821,6.826h130.244
			c3.769,0,6.821-3.057,6.821-6.826V40.641c0-3.769-3.057-6.821-6.821-6.821H42.819c-3.769,0-6.821,3.051-6.821,6.821v21.827h-6.989
			v13.647h6.989v59.248H35.993z M49.64,47.467h116.597v116.597H49.64V47.467z"/>
		<path style="fill:#010002;" d="M145.019,65.72c-2.665-2.66-6.984-2.66-9.649,0l-14.239,14.25c-3.976-2.051-8.42-3.312-13.19-3.312
			c-4.449,0-8.621,1.082-12.396,2.877L80.468,64.464c-2.665-2.665-6.984-2.665-9.649,0c-2.665,2.665-2.665,6.984,0,9.649
			L84.89,88.184c-3.742,4.895-6.059,10.954-6.059,17.579s2.317,12.678,6.059,17.574l-14.016,14.022c-2.665,2.66-2.665,6.978,0,9.643
			c1.333,1.333,3.078,2.002,4.824,2.002c1.746,0,3.492-0.669,4.824-2.002l15.017-15.017c3.769,1.789,7.941,2.872,12.396,2.872
			c5.037,0,9.709-1.403,13.842-3.666l13.255,13.26c1.333,1.333,3.078,1.996,4.824,1.996c1.746,0,3.492-0.664,4.824-1.996
			c2.665-2.665,2.665-6.984,0-9.649l-12.695-12.695c3.176-4.661,5.047-10.296,5.047-16.35c0-6.32-2.078-12.129-5.51-16.905
			l13.483-13.483C147.684,72.709,147.684,68.391,145.019,65.72z M107.941,121.226c-8.523,0-15.458-6.935-15.458-15.458
			c0-8.523,6.929-15.463,15.458-15.463c8.518,0,15.452,6.935,15.452,15.463C123.393,114.286,116.459,121.226,107.941,121.226z"/>
	</g>
</g>
</svg>